<svg width="180" height="30" fill="none" xmlns="http://www.w3.org/2000/svg"><g clip-path="url(#a)"><path d="M14.757 4.959 29.19.78 24.979 15l4.21 14.178-14.43-4.137L.284 29.179 4.537 15 .285.781 14.757 4.96Z" fill="#fff"/></g><path d="M40.11 25.473V2.917h9.117c1.4 0 2.645.28 3.739.838 1.115.537 1.978 1.31 2.59 2.32.635.988.952 2.18.952 3.576v.42c0 1.396-.328 2.599-.984 3.608A6.247 6.247 0 0 1 52.933 16c-1.093.537-2.329.806-3.706.806H43.65v8.668h-3.54Zm3.541-11.826h5.215c1.246 0 2.241-.322 2.984-.967.744-.644 1.115-1.525 1.115-2.642v-.322c0-1.139-.371-2.03-1.115-2.675-.743-.644-1.738-.966-2.984-.966h-5.215v7.572Zm23.445 12.277c-1.618 0-3.06-.323-4.329-.967a7.43 7.43 0 0 1-2.951-2.836c-.722-1.224-1.083-2.674-1.083-4.35v-.483c0-1.675.361-3.115 1.083-4.318a7.43 7.43 0 0 1 2.951-2.835c1.268-.666 2.711-1 4.33-1 1.617 0 3.06.334 4.329 1a7.376 7.376 0 0 1 2.984 2.835c.722 1.203 1.082 2.643 1.082 4.318v.483c0 1.676-.36 3.126-1.082 4.35a7.376 7.376 0 0 1-2.984 2.836c-1.269.644-2.712.967-4.33.967Zm0-2.965c1.487 0 2.69-.462 3.608-1.385.94-.946 1.41-2.245 1.41-3.9v-.29c0-1.653-.459-2.942-1.377-3.866-.918-.945-2.132-1.418-3.64-1.418-1.465 0-2.668.473-3.608 1.418-.918.924-1.378 2.213-1.378 3.867v.29c0 1.654.46 2.953 1.378 3.899.94.923 2.143 1.385 3.607 1.385Zm19.227 2.965c-2.055 0-3.76-.451-5.116-1.354-1.356-.902-2.187-2.266-2.493-4.092l3.148-.741c.175.88.47 1.579.886 2.094.415.516.93.881 1.541 1.096a6.295 6.295 0 0 0 2.034.322c1.071 0 1.891-.204 2.46-.612.59-.408.885-.934.885-1.579 0-.644-.273-1.117-.82-1.418-.547-.3-1.355-.547-2.427-.74l-1.115-.194a14.669 14.669 0 0 1-2.984-.838c-.897-.365-1.607-.87-2.132-1.514-.525-.645-.787-1.472-.787-2.481 0-1.504.568-2.664 1.705-3.48 1.137-.838 2.646-1.257 4.526-1.257 1.815 0 3.302.408 4.46 1.224 1.181.795 1.946 1.88 2.296 3.255l-3.148.87c-.197-.967-.613-1.644-1.247-2.03-.634-.408-1.42-.613-2.361-.613-.918 0-1.64.172-2.165.516-.524.322-.787.784-.787 1.386 0 .644.252 1.117.755 1.417.524.301 1.224.527 2.099.677l1.147.193c1.16.194 2.22.462 3.182.806.962.344 1.716.838 2.263 1.482.568.645.852 1.504.852 2.578 0 1.59-.6 2.825-1.803 3.706-1.203.88-2.82 1.32-4.854 1.32Zm10.606-.451V9.587h3.378v15.886h-3.378Zm1.705-18.045c-.656 0-1.213-.204-1.672-.612-.438-.43-.656-.978-.656-1.643 0-.666.218-1.203.656-1.612.459-.43 1.016-.644 1.672-.644.678 0 1.236.215 1.673.644.437.409.656.946.656 1.612 0 .665-.219 1.213-.656 1.643-.438.408-.995.612-1.673.612Zm12.753 18.045c-.984 0-1.771-.29-2.361-.87-.568-.58-.853-1.354-.853-2.32V12.39h-4.46V9.587h4.46V4.335h3.378v5.252h4.821v2.803h-4.821v9.313c0 .644.306.966.919.966h3.378v2.804h-4.461Zm8.954 0V9.587h3.378v15.886h-3.378Zm1.705-18.045c-.656 0-1.213-.204-1.672-.612-.438-.43-.656-.978-.656-1.643 0-.666.218-1.203.656-1.612.459-.43 1.016-.644 1.672-.644.678 0 1.236.215 1.673.644.437.409.656.946.656 1.612 0 .665-.219 1.213-.656 1.643-.437.408-.995.612-1.673.612Zm10.425 18.045-5.444-15.886h3.575l4.296 13.437h.525l4.296-13.437h3.575l-5.444 15.886h-5.379Zm20.299.29c-1.224 0-2.317-.269-3.279-.806a5.739 5.739 0 0 1-2.263-2.288c-.547-.988-.82-2.17-.82-3.544V9.587h3.378v9.312c0 1.375.35 2.395 1.049 3.061.7.645 1.673.967 2.919.967 1.377 0 2.482-.451 3.312-1.353.853-.924 1.28-2.245 1.28-3.964V9.587h3.378v15.886h-3.313v-2.385h-.525c-.306.645-.852 1.257-1.639 1.837-.788.558-1.946.838-3.477.838Zm20.572.161c-2.055 0-3.761-.451-5.116-1.354-1.356-.902-2.187-2.266-2.493-4.092l3.149-.741c.174.88.47 1.579.885 2.094.416.516.929.881 1.542 1.096a6.291 6.291 0 0 0 2.033.322c1.071 0 1.891-.204 2.46-.612.59-.408.885-.934.885-1.579 0-.644-.273-1.117-.82-1.418-.546-.3-1.355-.547-2.427-.74l-1.115-.194a14.661 14.661 0 0 1-2.984-.838c-.897-.365-1.607-.87-2.132-1.514-.525-.645-.787-1.472-.787-2.481 0-1.504.568-2.664 1.705-3.48 1.137-.838 2.646-1.257 4.526-1.257 1.815 0 3.302.408 4.46 1.224 1.181.795 1.946 1.88 2.296 3.255l-3.148.87c-.197-.967-.612-1.644-1.246-2.03-.635-.408-1.422-.613-2.362-.613-.918 0-1.64.172-2.164.516-.525.322-.787.784-.787 1.386 0 .644.251 1.117.754 1.417.525.301 1.224.527 2.099.677l1.148.193a18.56 18.56 0 0 1 3.181.806c.962.344 1.716.838 2.263 1.482.568.645.853 1.504.853 2.578 0 1.59-.602 2.825-1.804 3.706-1.203.88-2.821 1.32-4.854 1.32Z" fill="#fff"/><defs><clipPath id="a"><path fill="#fff" transform="translate(0 .5)" d="M0 0h29.517v29H0z"/></clipPath></defs></svg>