<svg width="30" height="30" fill="none" xmlns="http://www.w3.org/2000/svg"><circle cx="15" cy="15" r="15" fill="#fff"/><path d="M8.222 22.059h3.084v-9.985H8.222v9.985ZM7.941 8.887c0 .984.795 1.781 1.823 1.781.981 0 1.776-.797 1.776-1.781 0-.985-.795-1.828-1.776-1.828A1.828 1.828 0 0 0 7.94 8.887ZM19.81 22.059h3.131v-5.485c0-2.672-.607-4.781-3.738-4.781-1.495 0-2.523.844-2.944 1.64h-.047v-1.359h-2.944v9.985h3.085v-4.922c0-1.313.233-2.578 1.869-2.578 1.589 0 1.589 1.5 1.589 2.625v4.875Z" fill="#000"/></svg>